<svg width="25" height="24" viewBox="0 0 25 24" fill="none" xmlns="http://www.w3.org/2000/svg">
<g id="majesticons:library">
<path id="Vector" fill-rule="evenodd" clip-rule="evenodd" d="M12.0141 3.12604C12.1627 3.04338 12.33 3 12.5001 3C12.6702 3 12.8374 3.04338 12.9861 3.12604L21.9861 8.12604C22.1797 8.23369 22.3321 8.40257 22.4193 8.60619C22.5066 8.80982 22.5237 9.03664 22.4681 9.25107C22.4125 9.46551 22.2873 9.6554 22.1121 9.79096C21.9369 9.92652 21.7216 10.0001 21.5001 10V19C21.7653 19 22.0196 19.1054 22.2072 19.2929C22.3947 19.4805 22.5001 19.7348 22.5001 20C22.5001 20.2653 22.3947 20.5196 22.2072 20.7071C22.0196 20.8947 21.7653 21 21.5001 21H3.50007C3.23486 21 2.9805 20.8947 2.79297 20.7071C2.60543 20.5196 2.50007 20.2653 2.50007 20C2.50007 19.7348 2.60543 19.4805 2.79297 19.2929C2.9805 19.1054 3.23486 19 3.50007 19V10C3.27855 10.0001 3.06329 9.92652 2.88808 9.79096C2.71287 9.6554 2.58763 9.46551 2.53202 9.25107C2.47641 9.03664 2.49358 8.80982 2.58082 8.60619C2.66807 8.40257 2.82046 8.23369 3.01407 8.12604L12.0141 3.12604ZM9.50007 13C9.50007 12.7348 9.39472 12.4805 9.20718 12.2929C9.01964 12.1054 8.76529 12 8.50007 12C8.23486 12 7.9805 12.1054 7.79297 12.2929C7.60543 12.4805 7.50007 12.7348 7.50007 13V16C7.50007 16.2653 7.60543 16.5196 7.79297 16.7071C7.9805 16.8947 8.23486 17 8.50007 17C8.76529 17 9.01964 16.8947 9.20718 16.7071C9.39472 16.5196 9.50007 16.2653 9.50007 16V13ZM13.5001 13C13.5001 12.7348 13.3947 12.4805 13.2072 12.2929C13.0196 12.1054 12.7653 12 12.5001 12C12.2349 12 11.9805 12.1054 11.793 12.2929C11.6054 12.4805 11.5001 12.7348 11.5001 13V16C11.5001 16.2653 11.6054 16.5196 11.793 16.7071C11.9805 16.8947 12.2349 17 12.5001 17C12.7653 17 13.0196 16.8947 13.2072 16.7071C13.3947 16.5196 13.5001 16.2653 13.5001 16V13ZM17.5001 13C17.5001 12.7348 17.3947 12.4805 17.2072 12.2929C17.0196 12.1054 16.7653 12 16.5001 12C16.2349 12 15.9805 12.1054 15.793 12.2929C15.6054 12.4805 15.5001 12.7348 15.5001 13V16C15.5001 16.2653 15.6054 16.5196 15.793 16.7071C15.9805 16.8947 16.2349 17 16.5001 17C16.7653 17 17.0196 16.8947 17.2072 16.7071C17.3947 16.5196 17.5001 16.2653 17.5001 16V13Z" fill="#000003"/>
</g>
</svg>
