<svg width="25" height="24" viewBox="0 0 25 24" fill="none" xmlns="http://www.w3.org/2000/svg">
<g id="Services Icon" clip-path="url(#clip0_794_34124)">
<path id="Vector" d="M6.5 9C7.29565 9 8.05871 8.68393 8.62132 8.12132C9.18393 7.55871 9.5 6.79565 9.5 6M6.5 9C5.70435 9 4.94129 8.68393 4.37868 8.12132C3.81607 7.55871 3.5 6.79565 3.5 6M6.5 9V12M9.5 6C9.5 5.20435 9.18393 4.44129 8.62132 3.87868C8.05871 3.31607 7.29565 3 6.5 3M9.5 6H12.5M6.5 3C5.70435 3 4.94129 3.31607 4.37868 3.87868C3.81607 4.44129 3.5 5.20435 3.5 6M6.5 3V0M3.5 6H0.5M2.5 2L4.5 4M8.5 8L10.5 10M10.5 2L8.5 4M4.5 8L2.5 10M18.5 12C19.2956 12 20.0587 11.6839 20.6213 11.1213C21.1839 10.5587 21.5 9.79565 21.5 9M18.5 12C17.7044 12 16.9413 11.6839 16.3787 11.1213C15.8161 10.5587 15.5 9.79565 15.5 9M18.5 12V15M21.5 9C21.5 8.20435 21.1839 7.44129 20.6213 6.87868C20.0587 6.31607 19.2956 6 18.5 6M21.5 9H24.5M18.5 6C17.7044 6 16.9413 6.31607 16.3787 6.87868C15.8161 7.44129 15.5 8.20435 15.5 9M18.5 6V3M15.5 9H12.5M14.5 5L16.5 7M20.5 11L22.5 13M22.5 5L20.5 7M16.5 11L14.5 13M9.5 21C10.2956 21 11.0587 20.6839 11.6213 20.1213C12.1839 19.5587 12.5 18.7956 12.5 18M9.5 21C8.70435 21 7.94129 20.6839 7.37868 20.1213C6.81607 19.5587 6.5 18.7956 6.5 18M9.5 21V24M12.5 18C12.5 17.2044 12.1839 16.4413 11.6213 15.8787C11.0587 15.3161 10.2956 15 9.5 15M12.5 18H15.5M9.5 15C8.70435 15 7.94129 15.3161 7.37868 15.8787C6.81607 16.4413 6.5 17.2044 6.5 18M9.5 15V12M6.5 18H3.5M5.5 14L7.5 16M11.5 20L13.5 22M13.5 14L11.5 16M7.5 20L5.5 22" stroke="#000003" stroke-width="2"/>
</g>
<defs>
<clipPath id="clip0_794_34124">
<rect width="24" height="24" fill="white" transform="translate(0.5)"/>
</clipPath>
</defs>
</svg>
