<svg width="25" height="24" viewBox="0 0 25 24" fill="none" xmlns="http://www.w3.org/2000/svg">
<g id="eos-icons:admin">
<path id="Vector" d="M12.5 1L3.5 5V11C3.5 16.55 7.34 21.74 12.5 23C17.66 21.74 21.5 16.55 21.5 11V5L12.5 1ZM12.5 4.9C13.0933 4.9 13.6734 5.07595 14.1667 5.40559C14.6601 5.73524 15.0446 6.20377 15.2716 6.75195C15.4987 7.30013 15.5581 7.90333 15.4424 8.48527C15.3266 9.06721 15.0409 9.60176 14.6213 10.0213C14.2018 10.4409 13.6672 10.7266 13.0853 10.8424C12.5033 10.9581 11.9001 10.8987 11.3519 10.6716C10.8038 10.4446 10.3352 10.0601 10.0056 9.56671C9.67595 9.07336 9.5 8.49334 9.5 7.9C9.5 7.10435 9.81607 6.34129 10.3787 5.77868C10.9413 5.21607 11.7044 4.9 12.5 4.9ZM12.5 12.8C14.5 12.8 18.5 13.89 18.5 15.88C17.8432 16.8701 16.9516 17.6823 15.9047 18.2442C14.8578 18.806 13.6881 19.1 12.5 19.1C11.3119 19.1 10.1422 18.806 9.09527 18.2442C8.04836 17.6823 7.15677 16.8701 6.5 15.88C6.5 13.89 10.5 12.8 12.5 12.8Z" fill="#000003"/>
</g>
</svg>
