<svg width="60" height="60" viewBox="0 0 60 60" fill="none" xmlns="http://www.w3.org/2000/svg">
<g id="logocolor">
<g id="Group">
<path id="Vector" d="M42.4044 6.66047C40.2861 6.2888 35.9861 5.75214 30.9822 6.33769C26.1427 6.9038 22.125 8.34325 19.0405 10.6166C15.2661 13.3982 13.0283 17.351 12.3894 22.3638C11.7744 27.1916 12.9433 31.131 15.8639 34.0733C20.1166 38.3566 27.6139 39.826 34.2772 39.826C36.1144 39.826 37.8883 39.7144 39.5133 39.5194C40.0327 39.4583 40.4289 39.0483 40.4766 38.5238L43.305 7.84991C43.3583 7.27158 42.9711 6.76047 42.4039 6.66103L42.4044 6.66047ZM26.4622 31.0194C26.4644 30.9499 26.4605 30.8783 26.4489 30.7999C26.1261 28.7477 26.82 27.0488 28.4022 26.0155C29.365 25.3866 30.5422 25.0705 31.7066 25.0705C32.8083 25.0705 33.8989 25.3533 34.7861 25.9221C35.8822 26.6244 37.1016 28.0438 36.69 30.8155C36.6827 30.8655 36.6783 30.916 36.6772 30.966V30.9766C36.67 31.871 36.3189 33.1499 35.3527 34.056C34.4455 34.9071 33.1494 35.2921 31.5039 35.1999C26.3966 34.9133 26.4566 31.1749 26.4616 31.0188L26.4622 31.0194Z" fill="#F2ABC5"/>
<path id="Vector_2" d="M31.646 33.5141C29.951 33.5141 28.5715 32.1352 28.5715 30.4397C28.5715 28.7441 29.9504 27.3652 31.646 27.3652C33.3415 27.3652 34.7204 28.7441 34.7204 30.4397C34.7204 32.1352 33.3415 33.5141 31.646 33.5141ZM31.646 28.7569C30.7176 28.7569 29.9626 29.5119 29.9626 30.4402C29.9626 31.3686 30.7176 32.1236 31.646 32.1236C32.5743 32.1236 33.3293 31.3686 33.3293 30.4402C33.3293 29.5119 32.5743 28.7569 31.646 28.7569Z" fill="#2266C7"/>
<path id="Vector_3" d="M31.6161 31.2235C32.0656 31.2235 32.43 30.8591 32.43 30.4096C32.43 29.9601 32.0656 29.5957 31.6161 29.5957C31.1666 29.5957 30.8022 29.9601 30.8022 30.4096C30.8022 30.8591 31.1666 31.2235 31.6161 31.2235Z" fill="#000003"/>
</g>
<g id="Group_2">
<path id="Vector_4" d="M3.68667 53.5572C2.93722 53.5572 2.28556 53.3911 1.73278 53.0595C1.17944 52.7333 0.752778 52.2722 0.451667 51.6761C0.150556 51.08 0 50.3761 0 49.565C0 49.2572 0.0366667 48.9161 0.110556 48.5411C0.190556 48.16 0.316111 47.7817 0.488333 47.4072C0.660556 47.0261 0.890556 46.6789 1.17944 46.365C1.46833 46.0517 1.82167 45.8 2.23944 45.6095C2.65722 45.4128 3.14889 45.3145 3.71445 45.3145C4.2 45.3145 4.62389 45.3756 4.98667 45.4989C5.34945 45.6161 5.66278 45.7661 5.92667 45.9506C6.19111 46.1289 6.40889 46.3161 6.58111 46.5133C6.75945 46.7095 6.90056 46.8911 7.005 47.0572C7.10945 47.2167 7.18611 47.3333 7.23556 47.4078L5.89889 48.4311C5.76389 48.1795 5.60389 47.9333 5.41945 47.6933C5.235 47.4478 5.00778 47.2445 4.73722 47.085C4.46667 46.9256 4.13222 46.8456 3.73278 46.8456C3.33333 46.8456 2.98 46.9378 2.70944 47.1222C2.43889 47.3067 2.22389 47.54 2.06444 47.8228C1.91056 48.1056 1.80333 48.4067 1.74167 48.7267C1.68 49.04 1.64944 49.3322 1.64944 49.6028C1.64944 49.8917 1.68 50.1778 1.74167 50.4606C1.80333 50.7428 1.90778 51.0017 2.055 51.235C2.20889 51.4683 2.41167 51.6561 2.66333 51.7978C2.92167 51.9328 3.24389 52 3.63111 52C4.06111 52 4.41167 51.9233 4.68167 51.7695C4.95833 51.6161 5.18889 51.4006 5.37278 51.1239C5.55722 50.8411 5.72889 50.5122 5.88889 50.1372L7.40056 50.82C7.13 51.3789 6.82611 51.865 6.48833 52.2767C6.15056 52.6889 5.75389 53.005 5.29945 53.2267C4.84445 53.4478 4.30722 53.5583 3.68667 53.5583V53.5572Z" fill="#2266C7"/>
<path id="Vector_5" d="M8.98344 53.4549C8.96511 53.0372 8.95566 52.576 8.95566 52.0722C8.95566 51.5683 8.96511 51.0699 8.98344 50.5227C9.00177 49.9755 9.02955 49.4222 9.06622 48.8627C9.10288 48.2977 9.15233 47.7472 9.21399 47.2127C9.11566 47.2377 9.02066 47.2616 8.92844 47.2866C8.84233 47.3049 8.76233 47.3266 8.68899 47.351L8.21899 45.8855C9.70622 45.5349 10.944 45.3594 11.9334 45.3594C13.9429 45.3594 14.9473 46.1249 14.9473 47.6555C14.9473 48.3749 14.7079 48.946 14.2284 49.3705C13.749 49.7883 13.0457 50.0527 12.1179 50.1633C12.6768 50.6366 13.2396 51.0266 13.8046 51.3344C14.3762 51.6355 14.9534 51.891 15.5373 52.0994L14.5234 53.4549C14.1979 53.3377 13.8568 53.1749 13.5001 52.9666C13.1434 52.7572 12.7901 52.5266 12.4401 52.2749C12.0901 52.0233 11.7551 51.7677 11.4357 51.5099C11.1223 51.2516 10.8429 51.0116 10.5968 50.7905C10.5907 51.2144 10.5846 51.6449 10.5784 52.081V53.4183L10.5229 53.4733H9.76733C9.50288 53.4794 9.26344 53.4916 9.04844 53.5105L8.98399 53.4549H8.98344ZM11.8495 46.8249C11.6773 46.8249 11.4995 46.8344 11.3151 46.8527C11.1307 46.8649 10.9462 46.8833 10.7623 46.9077C10.7379 47.2516 10.7162 47.5933 10.6979 47.9316C10.6795 48.2633 10.664 48.5949 10.6518 48.9277C10.9223 48.9216 11.214 48.906 11.5273 48.8816C11.8468 48.851 12.1479 48.7955 12.4307 48.7155C12.7134 48.6294 12.944 48.506 13.1218 48.3466C13.3062 48.1872 13.3984 47.9744 13.3984 47.7105C13.3984 47.4033 13.2723 47.1788 13.0207 47.0377C12.769 46.896 12.3784 46.8255 11.8501 46.8255L11.8495 46.8249Z" fill="#2266C7"/>
<path id="Vector_6" d="M17.6738 53.4745L16.0977 53.1795C16.3927 51.9872 16.6999 50.9083 17.0193 49.9428C17.3449 48.9778 17.6799 48.1511 18.0238 47.4628C18.3677 46.7745 18.7182 46.2461 19.0743 45.8772C19.4371 45.5022 19.7993 45.3145 20.1615 45.3145C20.8932 45.3145 21.566 45.9933 22.1799 47.3522C22.7943 48.7045 23.3171 50.6656 23.7471 53.2356L22.1154 53.4567C22.0415 53.0511 21.9621 52.6361 21.876 52.2117C21.7899 51.7817 21.701 51.3633 21.6088 50.9578C21.4615 50.9517 21.3015 50.9483 21.1299 50.9483C20.8288 50.9483 20.5093 50.9545 20.171 50.9667C19.8393 50.9789 19.5104 51.0006 19.1849 51.0311C18.8654 51.0561 18.5671 51.0839 18.291 51.1139C18.1743 51.5078 18.0604 51.9067 17.9499 52.3128C17.8454 52.7122 17.7532 53.0995 17.6732 53.4745H17.6738ZM19.3693 48.0895C19.2343 48.3783 19.0527 48.8456 18.8254 49.4906C19.0899 49.46 19.3693 49.4383 19.6643 49.4261C19.9593 49.4078 20.2477 49.3983 20.5304 49.3983C20.7699 49.3983 21.0004 49.4045 21.2221 49.4167C21.136 49.1033 21.0532 48.8239 20.9732 48.5778C20.8993 48.3317 20.8315 48.1378 20.7704 47.9967C20.6415 47.665 20.5277 47.4311 20.4293 47.2961C20.331 47.1545 20.2299 47.0839 20.1254 47.0839C20.0149 47.0839 19.9043 47.1578 19.7938 47.3056C19.6832 47.4467 19.5421 47.7078 19.3699 48.0895H19.3693Z" fill="#2266C7"/>
<path id="Vector_7" d="M24.4522 53.4558C24.446 53.4069 24.4399 53.3419 24.4338 53.2619V52.9853C24.4338 52.7336 24.4399 52.4264 24.4522 52.0636C24.4705 51.6947 24.4922 51.2947 24.5166 50.8647C24.5416 50.4286 24.5694 49.9886 24.5994 49.5464C24.6305 49.0975 24.661 48.6675 24.6916 48.2553C24.7288 47.8375 24.7622 47.4653 24.7933 47.1397C24.6949 47.1514 24.5994 47.1641 24.5072 47.1764L24.3049 45.6091C24.9438 45.523 25.6227 45.4614 26.3422 45.4247C27.0672 45.3875 27.7738 45.3691 28.4616 45.3691C28.9777 45.3691 29.4727 45.3814 29.946 45.4064C30.4249 45.4247 30.8555 45.4525 31.236 45.4891L31.0977 47.0197C30.8149 46.9647 30.4922 46.9275 30.1294 46.9091C29.7672 46.8841 29.3766 46.8725 28.9588 46.8725C28.541 46.8725 28.0833 46.8841 27.6222 46.9091C27.1677 46.9275 26.7249 46.9525 26.2949 46.983C26.2699 47.2291 26.246 47.4841 26.221 47.7486C26.2027 48.013 26.1838 48.2864 26.166 48.5691C26.4855 48.5258 26.8388 48.4947 27.226 48.4769C27.6194 48.4586 28.0099 48.4491 28.3966 48.4491C28.8394 48.4491 29.2538 48.4614 29.641 48.4864C30.0349 48.5108 30.3355 48.5536 30.5449 48.6153L30.4344 50.1003C30.0044 50.0508 29.6016 50.0175 29.2266 49.9986C28.8522 49.9736 28.486 49.9614 28.1299 49.9614C27.436 49.9614 26.7505 50.0075 26.0749 50.0997C26.0377 50.7447 26.0077 51.3597 25.9827 51.9436C25.9644 52.5275 25.9488 53.0191 25.9366 53.4191L24.4527 53.4558H24.4522Z" fill="#2266C7"/>
<path id="Vector_8" d="M34.8333 53.5028C34.79 52.9678 34.7595 52.4484 34.7411 51.9445C34.7289 51.4406 34.7228 50.9639 34.7228 50.515C34.7228 49.7711 34.7383 49.1045 34.7689 48.5139C34.8 47.9178 34.8306 47.4045 34.8611 46.9739C34.3328 47.005 33.82 47.045 33.3222 47.0939C32.8245 47.1434 32.3633 47.2078 31.9395 47.2878L31.9578 45.7478C32.6767 45.6189 33.4145 45.5267 34.17 45.4711C34.9256 45.41 35.6817 45.3789 36.4372 45.3789C36.9778 45.3789 37.4939 45.3911 37.9856 45.4161C38.4833 45.4411 38.96 45.4772 39.4145 45.5267L39.405 47.1217C38.975 47.0545 38.5078 47.0078 38.0039 46.9834C37.5061 46.9528 36.9961 46.9372 36.4739 46.9372C36.4433 47.355 36.4156 47.8222 36.3911 48.3384C36.3661 48.8489 36.3545 49.3956 36.3545 49.98C36.3545 50.5022 36.3661 51.0528 36.3911 51.6306C36.4222 52.2084 36.4583 52.8167 36.5017 53.4561L34.8333 53.5022V53.5028Z" fill="#2266C7"/>
<path id="Vector_9" d="M40.4518 53.4546C40.4029 53.1352 40.3596 52.748 40.3229 52.293C40.2918 51.838 40.2674 51.3435 40.249 50.8085C40.2368 50.2735 40.2307 49.7296 40.2307 49.1763C40.2307 48.4818 40.2429 47.8052 40.2674 47.148C40.2924 46.4902 40.329 45.9118 40.3779 45.4141L42.074 45.4418C42.0068 45.878 41.954 46.3913 41.9174 46.9813C41.8863 47.5718 41.8713 48.2413 41.8713 48.9918C41.8713 49.7424 41.8835 50.5196 41.9085 51.2874C41.939 52.0563 41.9729 52.7596 42.0102 53.3991L40.4524 53.4541L40.4518 53.4546Z" fill="#2266C7"/>
<path id="Vector_10" d="M43.665 53.4549C43.6466 53.0372 43.6372 52.576 43.6372 52.0722C43.6372 51.5683 43.6466 51.0699 43.665 50.5227C43.6833 49.9755 43.7111 49.4222 43.7477 48.8627C43.7844 48.2977 43.8339 47.7472 43.895 47.2127C43.7966 47.2377 43.7011 47.2616 43.6094 47.2866C43.5233 47.3049 43.4433 47.3266 43.3694 47.351L42.8994 45.8855C44.3861 45.5349 45.625 45.3594 46.6139 45.3594C48.6233 45.3594 49.6277 46.1249 49.6277 47.6555C49.6277 48.3749 49.3883 48.946 48.9083 49.3705C48.4294 49.7883 47.7261 50.0527 46.7977 50.1633C47.3566 50.6366 47.9189 51.0266 48.4839 51.3344C49.0555 51.6355 49.6333 51.891 50.2172 52.0994L49.2033 53.4549C48.8777 53.3377 48.5366 53.1749 48.18 52.9666C47.8233 52.7572 47.4705 52.5266 47.12 52.2749C46.7694 52.0233 46.435 51.7677 46.1155 51.5099C45.8016 51.2516 45.5227 51.0116 45.2766 50.7905C45.2705 51.2144 45.2644 51.6449 45.2583 52.081V53.4183L45.2033 53.4733H44.4477C44.1833 53.4794 43.9439 53.4916 43.7283 53.5105L43.6639 53.4549H43.665ZM46.5316 46.8249C46.3594 46.8249 46.1811 46.8344 45.9966 46.8527C45.8122 46.8649 45.6283 46.8833 45.4439 46.9077C45.4189 47.2516 45.3977 47.5933 45.3789 47.9316C45.3611 48.2633 45.3455 48.5949 45.3327 48.9277C45.6033 48.9216 45.895 48.906 46.2089 48.8816C46.5283 48.851 46.8294 48.7955 47.1122 48.7155C47.3944 48.6294 47.6255 48.506 47.8039 48.3466C47.9877 48.1872 48.08 47.9744 48.08 47.7105C48.08 47.4033 47.9544 47.1788 47.7022 47.0377C47.4505 46.896 47.06 46.8255 46.5316 46.8255V46.8249Z" fill="#2266C7"/>
<path id="Vector_11" d="M55.5179 44.957C53.0423 44.957 51.0356 46.9637 51.0356 49.4393C51.0356 51.9148 53.0423 53.9215 55.5179 53.9215C57.9934 53.9215 60.0001 51.9148 60.0001 49.4393C60.0001 46.9637 57.9934 44.957 55.5179 44.957ZM58.2512 49.8265C58.2501 49.8337 58.249 49.8415 58.249 49.8487C58.2434 50.3854 57.7906 51.4193 56.3651 51.3387C54.9451 51.2593 54.6206 50.3243 54.6351 49.8526C54.6351 49.842 54.6351 49.832 54.6329 49.822C54.2323 47.2593 58.6534 47.1048 58.2512 49.8259V49.8265Z" fill="#FFA155"/>
</g>
</g>
</svg>
