<svg width="32" height="34" viewBox="0 0 32 34" fill="none" xmlns="http://www.w3.org/2000/svg">
<path d="M30.1742 0.582345C28.0559 0.210678 23.7559 -0.325988 18.752 0.259567C13.9125 0.825678 9.89474 2.26512 6.8103 4.53846C3.03585 7.32012 0.798071 11.2729 0.159183 16.2857C-0.455818 21.1135 0.713071 25.0529 3.63363 27.9951C7.88641 32.2785 15.3836 33.7479 22.047 33.7479C23.8842 33.7479 25.6581 33.6362 27.2831 33.4412C27.8025 33.3801 28.1986 32.9701 28.2464 32.4457L31.0747 1.77179C31.1281 1.19346 30.7409 0.682345 30.1736 0.582901L30.1742 0.582345ZM14.232 24.9412C14.2342 24.8718 14.2303 24.8001 14.2186 24.7218C13.8959 22.6696 14.5897 20.9707 16.172 19.9373C17.1347 19.3085 18.312 18.9923 19.4764 18.9923C20.5781 18.9923 21.6686 19.2751 22.5559 19.844C23.652 20.5462 24.8714 21.9657 24.4597 24.7373C24.4525 24.7873 24.4481 24.8379 24.447 24.8879V24.8985C24.4397 25.7929 24.0886 27.0718 23.1225 27.9779C22.2153 28.829 20.9192 29.214 19.2736 29.1218C14.1664 28.8351 14.2264 25.0968 14.2314 24.9407L14.232 24.9412Z" fill="#F2ABC5"/>
<path d="M19.4158 27.4355C17.7208 27.4355 16.3413 26.0566 16.3413 24.3611C16.3413 22.6655 17.7202 21.2866 19.4158 21.2866C21.1113 21.2866 22.4902 22.6655 22.4902 24.3611C22.4902 26.0566 21.1113 27.4355 19.4158 27.4355ZM19.4158 22.6783C18.4874 22.6783 17.7324 23.4333 17.7324 24.3616C17.7324 25.29 18.4874 26.045 19.4158 26.045C20.3441 26.045 21.0991 25.29 21.0991 24.3616C21.0991 23.4333 20.3441 22.6783 19.4158 22.6783Z" fill="#2266C7"/>
<path d="M19.3859 25.1454C19.8354 25.1454 20.1998 24.781 20.1998 24.3315C20.1998 23.882 19.8354 23.5176 19.3859 23.5176C18.9364 23.5176 18.572 23.882 18.572 24.3315C18.572 24.781 18.9364 25.1454 19.3859 25.1454Z" fill="#000003"/>
</svg>
