<svg width="38" height="38" viewBox="0 0 38 38" fill="none" xmlns="http://www.w3.org/2000/svg">
<path fill-rule="evenodd" clip-rule="evenodd" d="M28.9531 18.9993C28.9531 19.4193 28.7863 19.822 28.4894 20.1189C28.1924 20.4159 27.7897 20.5827 27.3698 20.5827L7.57812 20.5827C7.1582 20.5827 6.75547 20.4159 6.45854 20.1189C6.16161 19.822 5.99479 19.4193 5.99479 18.9993C5.99479 18.5794 6.16161 18.1767 6.45854 17.8798C6.75547 17.5828 7.1582 17.416 7.57812 17.416L27.3698 17.416C27.7897 17.416 28.1924 17.5828 28.4894 17.8798C28.7863 18.1767 28.9531 18.5794 28.9531 18.9993Z" fill="white"/>
<path fill-rule="evenodd" clip-rule="evenodd" d="M31.3281 18.9997C31.328 19.4196 31.1612 19.8222 30.8642 20.1191L23.7392 27.2441C23.4423 27.5412 23.0396 27.7082 22.6196 27.7083C22.1995 27.7085 21.7967 27.5418 21.4996 27.2449C21.2025 26.948 21.0355 26.5452 21.0353 26.1252C21.0352 25.7052 21.2019 25.3024 21.4988 25.0053L27.506 18.9997L21.5004 12.9941C21.2035 12.697 21.0368 12.2941 21.0369 11.8741C21.0371 11.4541 21.2041 11.0513 21.5012 10.7545C21.7983 10.4576 22.2011 10.2909 22.6211 10.291C23.0412 10.2912 23.4439 10.4582 23.7408 10.7553L30.8658 17.8803C31.1622 18.1774 31.3285 18.58 31.3281 18.9997Z" fill="white"/>
</svg>
