<svg width="32" height="32" viewBox="0 0 32 32" fill="none" xmlns="http://www.w3.org/2000/svg">
<g clip-path="url(#clip0_2278_14362)">
<path d="M30.9675 21.7602V13.6932L31.4705 13.4277C31.7975 13.2577 32.0035 12.9207 32.0075 12.5517C32.0115 12.1837 31.812 11.8427 31.489 11.6652L16.444 3.61521C16.143 3.45021 15.779 3.45118 15.476 3.61818L0.513515 11.6782C0.194984 11.8557 -0.00198491 12.1927 1.50876e-05 12.5582C0.00201509 12.9237 0.203015 13.2582 0.525546 13.4323L7.10005 16.9317C7.01755 17.0772 6.96655 17.2432 6.96655 17.4222V25.8842C6.96658 26.0253 6.99645 26.1648 7.05418 26.2936C7.11192 26.4223 7.19621 26.5374 7.30155 26.6312C7.51858 26.8237 9.59658 28.5092 15.9501 28.5092C22.2811 28.5092 24.4151 26.9162 24.6376 26.7347C24.8701 26.5452 25.0046 26.2612 25.0046 25.9602V17.2812C25.0046 17.1407 24.9751 17.0072 24.9231 16.8862L28.9676 14.7497V21.7657C28.3746 22.1127 27.9726 22.7492 27.9726 23.4852C27.9726 24.5897 28.8681 25.4852 29.9726 25.4852C31.0771 25.4852 31.9726 24.5897 31.9726 23.4852C31.9726 22.7447 31.565 22.1057 30.9675 21.7602ZM23.0045 25.3872C22.2185 25.7652 20.1385 26.5092 15.95 26.5092C11.735 26.5092 9.70202 25.7172 8.96652 25.3362V17.9257L15.4605 21.3827C15.6063 21.4615 15.7693 21.5028 15.935 21.5027C16.0964 21.5028 16.2553 21.4635 16.398 21.3882L23.0045 17.8987V25.3872ZM15.943 19.3698L3.08051 12.5397L15.9655 5.63424L28.8905 12.5197L15.943 19.3698Z" fill="white"/>
</g>
<defs>
<clipPath id="clip0_2278_14362">
<rect width="32" height="32" fill="white"/>
</clipPath>
</defs>
</svg>
