<svg width="32" height="32" viewBox="0 0 32 32" fill="none" xmlns="http://www.w3.org/2000/svg">
<path d="M28.9344 1.26953L19.7219 4.72891L23.0281 6.81328C17.1219 14.2508 8.57812 18.832 1.35938 20.5758L3.40438 24.3008C11.5156 21.657 20.1031 16.8883 25.6344 8.46328L28.1531 10.0508L28.9344 1.26953ZM29.4156 8.56328L29.1156 11.9883L25.9094 9.96328C25.7969 10.132 25.6781 10.2945 25.5594 10.4633V30.4383H30.4344V8.56328H29.4156ZM20.0031 16.5633C19.2094 17.2508 18.3906 17.9008 17.5594 18.5133V30.4383H22.4344V16.5633H20.0031ZM12.2719 21.8133C11.3719 22.2883 10.4719 22.7258 9.55937 23.1383V30.4383H14.4344V21.8133H12.2719ZM1.55938 24.5633V30.4383H6.43437V24.5633H6.07938C5.15313 24.907 4.2275 25.2258 3.3075 25.5195L2.86625 25.657L2.26625 24.5633H1.55938Z" fill="white"/>
</svg>
