<svg width="618" height="672" viewBox="0 0 618 672" fill="none" xmlns="http://www.w3.org/2000/svg">
<path d="M599.102 12.5218C557.043 5.14244 471.667 -5.51296 372.316 6.11312C276.23 17.3531 196.458 45.933 135.217 91.0696C60.2762 146.299 15.8455 224.781 3.16053 324.308C-9.05016 420.163 14.1579 498.38 72.1449 556.797C156.583 641.841 305.439 671.017 437.738 671.017C474.215 671.017 509.436 668.8 541.7 664.928C552.013 663.715 559.878 655.574 560.826 645.162L616.982 36.138C618.041 24.6553 610.353 14.5073 599.091 12.5328L599.102 12.5218ZM282.573 496.162C282.617 494.784 282.539 493.361 282.308 491.805C275.899 451.059 289.676 417.328 321.091 396.811C340.207 384.325 363.58 378.048 386.7 378.048C408.573 378.048 430.226 383.663 447.842 394.958C469.605 408.901 493.816 437.083 485.643 492.114C485.499 493.107 485.411 494.111 485.389 495.103V495.313C485.246 513.072 478.275 538.464 459.093 556.455C441.08 573.353 415.346 580.998 382.674 579.166C281.271 573.475 282.462 499.251 282.561 496.151L282.573 496.162Z" fill="#F2ABC5"/>
<path d="M385.464 545.689C351.81 545.689 324.422 518.312 324.422 484.647C324.422 450.982 351.799 423.604 385.464 423.604C419.129 423.604 446.507 450.982 446.507 484.647C446.507 518.312 419.129 545.689 385.464 545.689ZM385.464 451.236C367.032 451.236 352.042 466.226 352.042 484.658C352.042 503.09 367.032 518.08 385.464 518.08C403.896 518.08 418.887 503.09 418.887 484.658C418.887 466.226 403.896 451.236 385.464 451.236Z" fill="#2266C7"/>
<path d="M384.871 500.21C393.795 500.21 401.03 492.975 401.03 484.051C401.03 475.126 393.795 467.891 384.871 467.891C375.946 467.891 368.711 475.126 368.711 484.051C368.711 492.975 375.946 500.21 384.871 500.21Z" fill="#000003"/>
</svg>
